<svg width="24" height="24" viewBox="0 0 24 24" fill="none" xmlns="http://www.w3.org/2000/svg">
<path fill-rule="evenodd" clip-rule="evenodd" d="M9.4375 5.75C9.33395 5.75 9.25 5.83395 9.25 5.9375V7.4772H7.75V5.9375C7.75 5.00552 8.50552 4.25 9.4375 4.25H17.5625C18.4945 4.25 19.25 5.00552 19.25 5.9375V14.0625C19.25 14.9945 18.4945 15.75 17.5625 15.75H16.0054V14.25H17.5625C17.6661 14.25 17.75 14.1661 17.75 14.0625V5.9375C17.75 5.83395 17.6661 5.75 17.5625 5.75H9.4375Z" fill="#6349FF"/>
<path fill-rule="evenodd" clip-rule="evenodd" d="M3.75 9.9375C3.75 9.00552 4.50552 8.25 5.4375 8.25H13.5625C14.4945 8.25 15.25 9.00552 15.25 9.9375V18.0625C15.25 18.9945 14.4945 19.75 13.5625 19.75H5.4375C4.50552 19.75 3.75 18.9945 3.75 18.0625V9.9375ZM5.4375 9.75C5.33395 9.75 5.25 9.83395 5.25 9.9375V18.0625C5.25 18.1661 5.33395 18.25 5.4375 18.25H13.5625C13.6661 18.25 13.75 18.1661 13.75 18.0625V9.9375C13.75 9.83395 13.6661 9.75 13.5625 9.75H5.4375Z" fill="#6349FF"/>
</svg>
