<svg width="14" height="14" viewBox="0 0 14 14" fill="none" xmlns="http://www.w3.org/2000/svg">
<path fill-rule="evenodd" clip-rule="evenodd" d="M0 7C0 3.13391 3.13391 0 7 0C10.8661 0 14 3.13391 14 7C14 10.8661 10.8661 14 7 14C3.13391 14 0 10.8661 0 7Z" fill="black"/>
<path fill-rule="evenodd" clip-rule="evenodd" d="M0 7C0 3.13391 3.13391 0 7 0C10.8661 0 14 3.13391 14 7C14 10.8661 10.8661 14 7 14C3.13391 14 0 10.8661 0 7Z" fill="#6349FF" fill-opacity="0.3"/>
<path fill-rule="evenodd" clip-rule="evenodd" d="M7 1C3.68619 1 1 3.68619 1 7C1 10.3138 3.68619 13 7 13C10.3138 13 13 10.3138 13 7C13 3.68619 10.3138 1 7 1ZM7 0C3.13391 0 0 3.13391 0 7C0 10.8661 3.13391 14 7 14C10.8661 14 14 10.8661 14 7C14 3.13391 10.8661 0 7 0Z" fill="#6349FF" fill-opacity="0.6"/>
<path fill-rule="evenodd" clip-rule="evenodd" d="M7 1C3.68619 1 1 3.68619 1 7C1 10.3138 3.68619 13 7 13C10.3138 13 13 10.3138 13 7C13 3.68619 10.3138 1 7 1ZM7 0C3.13391 0 0 3.13391 0 7C0 10.8661 3.13391 14 7 14C10.8661 14 14 10.8661 14 7C14 3.13391 10.8661 0 7 0Z" fill="url(#paint0_linear_8001_339778)" fill-opacity="0.5"/>
<mask id="mask0_8001_339778" style="mask-type:alpha" maskUnits="userSpaceOnUse" x="2" y="2" width="10" height="10">
<path fill-rule="evenodd" clip-rule="evenodd" d="M2.5 7C2.5 4.51466 4.51466 2.5 7 2.5C9.48534 2.5 11.5 4.51466 11.5 7C11.5 9.48534 9.48534 11.5 7 11.5C4.51466 11.5 2.5 9.48534 2.5 7Z" fill="black"/>
<path fill-rule="evenodd" clip-rule="evenodd" d="M2.5 7C2.5 4.51466 4.51466 2.5 7 2.5C9.48534 2.5 11.5 4.51466 11.5 7C11.5 9.48534 9.48534 11.5 7 11.5C4.51466 11.5 2.5 9.48534 2.5 7Z" fill="#6349FF" fill-opacity="0.3"/>
</mask>
<g mask="url(#mask0_8001_339778)">
<path fill-rule="evenodd" clip-rule="evenodd" d="M6.57966 11.4397V2.55176H7.37966V5.49843L8.85816 2.93759L9.55098 3.33759L8.07738 5.88994L10.6381 4.4115L11.0381 5.10432L8.48575 6.57793L11.4419 6.57793V7.37793L8.49551 7.37793L11.0563 8.85638L10.6563 9.5492L8.10432 8.07584L9.58219 10.6356L8.88937 11.0356L7.37966 8.42068V11.4397H6.57966ZM5.19987 6.9817L1.91125 5.08369L2.31115 4.39081L6.20004 6.63525V7.32814L2.31115 9.57258L1.91125 8.8797L5.19987 6.9817Z" fill="#6349FF"/>
<path fill-rule="evenodd" clip-rule="evenodd" d="M6.57966 11.4397V2.55176H7.37966V5.49843L8.85816 2.93759L9.55098 3.33759L8.07738 5.88994L10.6381 4.4115L11.0381 5.10432L8.48575 6.57793L11.4419 6.57793V7.37793L8.49551 7.37793L11.0563 8.85638L10.6563 9.5492L8.10432 8.07584L9.58219 10.6356L8.88937 11.0356L7.37966 8.42068V11.4397H6.57966ZM5.19987 6.9817L1.91125 5.08369L2.31115 4.39081L6.20004 6.63525V7.32814L2.31115 9.57258L1.91125 8.8797L5.19987 6.9817Z" fill="#6349FF" fill-opacity="0.6"/>
<path fill-rule="evenodd" clip-rule="evenodd" d="M6.57966 11.4397V2.55176H7.37966V5.49843L8.85816 2.93759L9.55098 3.33759L8.07738 5.88994L10.6381 4.4115L11.0381 5.10432L8.48575 6.57793L11.4419 6.57793V7.37793L8.49551 7.37793L11.0563 8.85638L10.6563 9.5492L8.10432 8.07584L9.58219 10.6356L8.88937 11.0356L7.37966 8.42068V11.4397H6.57966ZM5.19987 6.9817L1.91125 5.08369L2.31115 4.39081L6.20004 6.63525V7.32814L2.31115 9.57258L1.91125 8.8797L5.19987 6.9817Z" fill="url(#paint1_linear_8001_339778)" fill-opacity="0.5"/>
</g>
<defs>
<linearGradient id="paint0_linear_8001_339778" x1="0.0972225" y1="0.0972222" x2="15.8378" y2="20.0797" gradientUnits="userSpaceOnUse">
<stop stop-color="#9685FF"/>
<stop offset="1" stop-color="#9685FF" stop-opacity="0"/>
</linearGradient>
<linearGradient id="paint1_linear_8001_339778" x1="1.97744" y1="2.61348" x2="11.786" y2="15.9657" gradientUnits="userSpaceOnUse">
<stop stop-color="#9685FF"/>
<stop offset="1" stop-color="#9685FF" stop-opacity="0"/>
</linearGradient>
</defs>
</svg>
