<svg viewBox="0 0 14 14" fill="none" xmlns="http://www.w3.org/2000/svg">
<path d="M7 12.0908C6.30339 12.0908 5.64746 11.9574 5.03223 11.6904C4.41699 11.4268 3.875 11.0605 3.40625 10.5918C2.9375 10.123 2.56966 9.58268 2.30273 8.9707C2.03906 8.35547 1.90723 7.69792 1.90723 6.99805C1.90723 6.30143 2.03906 5.64714 2.30273 5.03516C2.56966 4.41992 2.93587 3.87793 3.40137 3.40918C3.87012 2.94043 4.41211 2.57422 5.02734 2.31055C5.64258 2.04362 6.2985 1.91016 6.99512 1.91016C7.69173 1.91016 8.34766 2.04362 8.96289 2.31055C9.58138 2.57422 10.1234 2.94043 10.5889 3.40918C11.0576 3.87793 11.4255 4.41992 11.6924 5.03516C11.9593 5.64714 12.0928 6.30143 12.0928 6.99805C12.0928 7.69792 11.9593 8.35547 11.6924 8.9707C11.4255 9.58268 11.0576 10.123 10.5889 10.5918C10.1234 11.0605 9.58301 11.4268 8.96777 11.6904C8.35254 11.9574 7.69661 12.0908 7 12.0908ZM7 10.9727C7.55013 10.9727 8.06445 10.8701 8.54297 10.665C9.02474 10.46 9.44792 10.1768 9.8125 9.81543C10.1771 9.45085 10.4619 9.0293 10.667 8.55078C10.8721 8.06901 10.9746 7.55143 10.9746 6.99805C10.9746 6.44792 10.8704 5.93359 10.6621 5.45508C10.457 4.97331 10.1722 4.55013 9.80762 4.18555C9.44629 3.82096 9.02474 3.53613 8.54297 3.33105C8.06445 3.12598 7.5485 3.02344 6.99512 3.02344C6.44499 3.02344 5.92904 3.12598 5.44727 3.33105C4.96875 3.53613 4.5472 3.82096 4.18262 4.18555C3.82129 4.55013 3.53809 4.97331 3.33301 5.45508C3.13118 5.93359 3.03027 6.44792 3.03027 6.99805C3.03027 7.55143 3.13118 8.06901 3.33301 8.55078C3.53809 9.0293 3.82292 9.45085 4.1875 9.81543C4.55208 10.1768 4.97363 10.46 5.45215 10.665C5.93392 10.8701 6.44987 10.9727 7 10.9727ZM6.14551 9.64453C6.03158 9.64453 5.93555 9.60872 5.85742 9.53711C5.7793 9.46224 5.74023 9.36621 5.74023 9.24902C5.74023 9.13835 5.7793 9.04557 5.85742 8.9707C5.93555 8.89583 6.03158 8.8584 6.14551 8.8584H6.70703V6.96387H6.2334C6.11947 6.96387 6.02344 6.92806 5.94531 6.85645C5.86719 6.78158 5.82812 6.68555 5.82812 6.56836C5.82812 6.45768 5.86719 6.36491 5.94531 6.29004C6.02344 6.21517 6.11947 6.17773 6.2334 6.17773H7.15625C7.29948 6.17773 7.40853 6.22494 7.4834 6.31934C7.55827 6.41048 7.5957 6.53255 7.5957 6.68555V8.8584H8.09863C8.21256 8.8584 8.30859 8.89583 8.38672 8.9707C8.46484 9.04557 8.50391 9.13835 8.50391 9.24902C8.50391 9.36621 8.46484 9.46224 8.38672 9.53711C8.30859 9.60872 8.21256 9.64453 8.09863 9.64453H6.14551ZM6.98047 5.45996C6.79492 5.45996 6.63542 5.39486 6.50195 5.26465C6.36849 5.13118 6.30176 4.97168 6.30176 4.78613C6.30176 4.59408 6.36849 4.43294 6.50195 4.30273C6.63542 4.16927 6.79492 4.10254 6.98047 4.10254C7.16927 4.10254 7.32878 4.16927 7.45898 4.30273C7.58919 4.43294 7.6543 4.59408 7.6543 4.78613C7.6543 4.97168 7.58919 5.13118 7.45898 5.26465C7.32878 5.39486 7.16927 5.45996 6.98047 5.45996Z" fill="white" fill-opacity="0.5"/>
</svg>
