<svg width="262" height="34" viewBox="0 0 262 34" fill="none" xmlns="http://www.w3.org/2000/svg">
<g clip-path="url(#clip0_5125_301267)">
<g clip-path="url(#clip1_5125_301267)">
<path d="M15.9458 16.9022L15.9458 4.98462" stroke="#6349FF" stroke-width="2.05645" stroke-linejoin="bevel"/>
<path d="M15.9458 16.8998L15.9458 28.8174" stroke="#6349FF" stroke-width="2.05645" stroke-linejoin="bevel"/>
<path d="M15.9458 16.9006L15.9458 28.8181" stroke="#6349FF" stroke-width="2.05645" stroke-linejoin="bevel"/>
<path d="M16.0344 16.8766L21.9932 27.1975" stroke="#6349FF" stroke-width="2.05645" stroke-linejoin="bevel"/>
<path d="M16.0194 16.8603L26.3403 22.8191" stroke="#6349FF" stroke-width="2.05645" stroke-linejoin="bevel"/>
<path d="M15.9926 16.8533L27.9102 16.8533" stroke="#6349FF" stroke-width="2.05645" stroke-linejoin="bevel"/>
<path d="M15.9691 16.8597L26.29 10.9009" stroke="#6349FF" stroke-width="2.05645" stroke-linejoin="bevel"/>
<path d="M15.9514 16.8768L21.9102 6.55591" stroke="#6349FF" stroke-width="2.05645" stroke-linejoin="bevel"/>
<path d="M2.89014 22.882L13.318 16.8636L2.89014 10.8452" stroke="#6349FF" stroke-width="2.05645" stroke-linejoin="bevel"/>
</g>
</g>
<path d="M90.9023 22.7658H88.5493V13.5893H90.9023V15.0011H91.2552C91.4643 14.4843 91.7678 14.0614 92.2353 13.7785C92.7028 13.4955 93.2503 13.354 93.8778 13.354C94.3207 13.354 94.7328 13.4278 95.1142 13.5755C95.5079 13.7108 95.8524 13.9261 96.1476 14.2214C96.4429 14.5166 96.6705 14.8919 96.8305 15.3471C97.0027 15.8023 97.1376 16.3436 97.1376 16.9711V22.7658H94.7636V17.5616C94.7636 16.9096 94.6036 16.399 94.2837 16.0299C93.9762 15.6485 93.5271 15.4578 92.9366 15.4578C92.2476 15.4578 91.7309 15.6916 91.3864 16.1591C91.0542 16.6143 90.9023 17.2294 90.9023 18.0045V22.7658Z" fill="#F4F3FF"/>
<path d="M79.9595 20.4127H82.6654V15.8245H80.3124V13.5892H85.0183V20.4127H87.3712V22.7657H79.9595V20.4127Z" fill="#F4F3FF"/>
<path d="M85.4889 10.648C85.4889 11.6226 84.6988 12.4127 83.7242 12.4127C82.7496 12.4127 81.9595 11.6226 81.9595 10.648C81.9595 9.67339 82.7496 8.8833 83.7242 8.8833C84.6988 8.8833 85.4889 9.67339 85.4889 10.648Z" fill="#F4F3FF"/>
<path d="M68.4303 22.7658H72.5479L73.1434 15.7069V14.5305H73.5995V15.7069L74.195 22.7658H78.3126L78.9009 13.354H76.6656L76.3126 20.4128V21.5893H75.8421V20.4128L75.3715 13.354H71.3715L70.9009 20.4128V21.5893H70.4303V20.4128L70.0773 13.354H67.8421L68.4303 22.7658Z" fill="#F4F3FF"/>
<path d="M57.017 13.5893H60.896V14.8834H61.2523C61.4246 14.379 61.6895 14.0491 62.0955 13.7785C62.5138 13.4955 63.0121 13.354 63.5903 13.354C64.5007 13.354 65.2328 13.6431 65.7864 14.2214C66.34 14.7873 66.7817 15.6547 66.7817 16.8234V17.2294L64.2178 17.4509V17.1925C64.2178 16.6881 64.0886 16.2883 63.8302 15.993C63.5719 15.6854 63.1843 15.5316 62.6676 15.5316C62.1509 15.5316 61.7449 15.71 61.4496 16.0668C61.1543 16.4236 61.0067 16.9342 61.0067 17.5985V20.4128H63.1347V22.7658H56.7817V20.4128H58.6814V15.8246H57.017V13.5893Z" fill="#F4F3FF"/>
<path d="M49.7699 23.0011C48.8775 23.0011 48.1567 22.742 47.6075 22.2239C47.0583 21.7058 46.7837 21.0272 46.7837 20.188C46.7837 19.3489 47.0897 18.6872 47.7019 18.2029C48.314 17.7186 49.2007 17.437 50.362 17.3581L52.5484 17.223V16.4796C52.5484 16.0741 52.4414 15.7587 52.1726 15.5335C51.9037 15.3082 51.5261 15.1956 51.0399 15.1956C50.628 15.1956 50.279 15.28 49.993 15.449C49.7127 15.6123 49.521 15.8404 49.4181 16.1332H47.1355C47.1927 15.5701 47.3929 15.0801 47.7362 14.6634C48.0851 14.2466 48.5457 13.9256 49.1177 13.7004C49.6955 13.4695 50.3591 13.354 51.1085 13.354C52.3213 13.354 53.2566 13.63 53.9145 14.1819C54.5724 14.7281 54.9013 15.5109 54.9013 16.5303V19.3864V20.3131C54.9013 20.508 55.0594 20.666 55.2543 20.666H55.6072V22.7658H53.6072C53.0224 22.7658 52.5484 22.2917 52.5484 21.7069V21.5893H52.3131C52.0786 22.0286 51.878 22.39 51.4089 22.6378C50.9398 22.88 50.3934 23.0011 49.7699 23.0011ZM50.5765 21.1511C50.9655 21.1511 51.3088 21.0778 51.6062 20.9314C51.9094 20.7794 52.1468 20.571 52.3184 20.3063C52.4901 20.036 52.5484 19.7291 52.5484 19.3855V18.7097L50.7567 18.8195C49.6526 18.8871 49.1006 19.287 49.1006 20.0191C49.1006 20.3683 49.2321 20.6442 49.4953 20.8469C49.7584 21.0497 50.1188 21.1511 50.5765 21.1511Z" fill="#F4F3FF"/>
<path d="M36.8782 11.0005H40.6679C42.3213 11.0005 43.5737 11.4924 44.4249 12.4762C45.2762 13.4545 45.7018 14.8949 45.7018 16.7972C45.7018 18.7702 45.2789 20.2595 44.4331 21.2651C43.5873 22.2651 42.3322 22.7652 40.6679 22.7652H36.8782V11.0005ZM39.2028 12.998V20.7677H40.3487C41.3691 20.7677 42.1194 20.4525 42.5996 19.822C43.0853 19.186 43.3281 18.1914 43.3281 16.838C43.3281 15.5444 43.0825 14.5824 42.5914 13.9519C42.1058 13.3159 41.3582 12.998 40.3487 12.998H39.2028Z" fill="#F4F3FF"/>
<path d="M36.1724 11.0005H36.8782V13.0005H36.1724V11.0005Z" fill="#F4F3FF"/>
<path d="M36.1724 20.7652H36.8782V22.7652H36.1724V20.7652Z" fill="#F4F3FF"/>
<path d="M131.026 16.7199C131.026 16.9915 131.167 17.1895 131.449 17.314C131.731 17.4271 132.244 17.5233 132.988 17.6025C133.845 17.693 134.544 17.9533 135.085 18.3833C135.627 18.802 135.897 19.3904 135.897 20.1485V20.2504C135.897 21.0877 135.593 21.7554 134.984 22.2532C134.375 22.7511 133.518 23.0001 132.413 23.0001C131.759 23.0001 131.201 22.9152 130.738 22.7455C130.276 22.5757 129.892 22.3664 129.588 22.1175C129.284 21.8572 129.047 21.5743 128.878 21.2688C128.72 20.9519 128.613 20.6464 128.556 20.3522L130.518 19.7072C130.609 20.0693 130.795 20.3862 131.077 20.6577C131.37 20.9293 131.815 21.0651 132.413 21.0651C132.943 21.0651 133.304 20.9859 133.495 20.8275C133.698 20.6577 133.8 20.4767 133.8 20.2843C133.8 20.1712 133.772 20.0693 133.715 19.9788C133.67 19.877 133.58 19.7864 133.445 19.7072C133.309 19.6167 133.123 19.5431 132.886 19.4866C132.661 19.43 132.373 19.3847 132.024 19.3508C131.077 19.2716 130.321 19.0283 129.757 18.6209C129.205 18.2022 128.928 17.5912 128.928 16.7878V16.6859C128.928 16.2673 129.018 15.8995 129.199 15.5827C129.379 15.2658 129.616 14.9999 129.909 14.7849C130.203 14.5586 130.541 14.3888 130.924 14.2757C131.308 14.1625 131.702 14.106 132.108 14.106C132.638 14.106 133.095 14.1739 133.478 14.3096C133.873 14.4341 134.206 14.6038 134.476 14.8188C134.747 15.0225 134.967 15.2545 135.136 15.5148C135.305 15.7637 135.435 16.007 135.525 16.2446L133.597 17.0254C133.495 16.7199 133.321 16.4822 133.072 16.3125C132.824 16.1315 132.503 16.0409 132.108 16.0409C131.747 16.0409 131.477 16.1088 131.296 16.2446C131.116 16.3691 131.026 16.5275 131.026 16.7199Z" fill="#F4F3FF"/>
<path d="M121.215 22.7647H119.144V11H121.215V15.6093H121.536C121.761 15.1477 122.087 14.793 122.515 14.5452C122.943 14.2863 123.489 14.1568 124.153 14.1568C124.648 14.1568 125.115 14.2525 125.554 14.4439C126.004 14.6353 126.393 14.9168 126.719 15.2884C127.057 15.6487 127.321 16.0935 127.512 16.6228C127.715 17.152 127.803 17.7544 127.803 18.43V18.734C127.803 19.4209 127.721 20.029 127.529 20.5582C127.338 21.0874 127.079 21.5378 126.753 21.9094C126.426 22.2698 126.038 22.5456 125.588 22.737C125.149 22.9172 124.67 23 124.153 23C123.77 23 123.438 22.9679 123.157 22.8891C122.875 22.8102 122.628 22.7033 122.414 22.5681C122.211 22.433 122.037 22.281 121.89 22.1121C121.755 21.9319 121.637 21.7462 121.536 21.5547H121.215V22.7647ZM123.46 20.9805C124.125 20.9805 124.659 20.7778 125.064 20.3724C125.481 19.9558 125.689 19.3928 125.689 18.6834V18.4807C125.689 17.7713 125.481 17.2139 125.064 16.8085C124.659 16.3919 124.125 16.1836 123.46 16.1836C122.796 16.1836 122.256 16.3976 121.84 16.8254C121.434 17.2421 121.215 17.7938 121.215 18.4807V18.6834C121.215 19.3702 121.434 19.9276 121.84 20.3555C122.256 20.7721 122.796 20.9805 123.46 20.9805Z" fill="#F4F3FF"/>
<path d="M112.704 22.9996C111.816 22.9996 111.098 22.7405 110.552 22.2224C110.005 21.7043 109.732 21.0152 109.732 20.1761C109.732 19.3369 110.037 18.6857 110.646 18.2014C111.255 17.7171 112.138 17.4355 113.293 17.3567L115.47 17.2215V16.4781C115.47 16.0726 115.363 15.7573 115.096 15.532C114.828 15.3067 114.452 15.1941 113.968 15.1941C113.558 15.1941 113.211 15.2786 112.926 15.4475C112.647 15.6108 112.456 15.8389 112.354 16.1318H110.082C110.139 15.5686 110.338 15.0786 110.68 14.6619C111.027 14.2452 111.486 13.9242 112.055 13.6989C112.63 13.468 113.291 13.3525 114.037 13.3525C115.244 13.3525 116.175 13.6285 116.829 14.1804C117.484 14.7267 117.812 15.5095 117.812 16.5288V19.3849V20.2954C117.812 20.4894 117.969 20.6467 118.163 20.6467H118.297V22.7643H116.523C115.941 22.7643 115.47 22.2925 115.47 21.7106V21.5878H115.235C115.002 22.0271 114.802 22.3886 114.335 22.6364C113.869 22.8785 113.325 22.9996 112.704 22.9996ZM113.507 21.1496C113.894 21.1496 114.236 21.0764 114.532 20.93C114.834 20.7779 115.07 20.5695 115.241 20.3048C115.412 20.0345 115.47 19.7276 115.47 19.3841V18.7083L113.686 18.8181C112.587 18.8857 112.038 19.2855 112.038 20.0176C112.038 20.3668 112.169 20.6427 112.431 20.8455C112.693 21.0482 113.051 21.1496 113.507 21.1496Z" fill="#F4F3FF"/>
<path d="M101.449 23V11H103.802V20.7882H108.978V23H101.449Z" fill="#F4F3FF"/>
<defs>
<clipPath id="clip0_5125_301267">
<rect width="32.1774" height="32.1774" fill="white" transform="translate(0 0.911377)"/>
</clipPath>
<clipPath id="clip1_5125_301267">
<rect x="4.08154" y="4.9939" width="23.8351" height="23.8351" rx="11.9176" fill="white"/>
</clipPath>
</defs>
</svg>
