<svg width="24" height="24" viewBox="0 0 24 24" fill="none" xmlns="http://www.w3.org/2000/svg">
<path d="M21.5536 2L13.1035 8.25078L14.6791 4.56591L21.5536 2Z" fill="#E17726" stroke="#E17726" stroke-width="0.160771" stroke-linecap="round" stroke-linejoin="round"/>
<path d="M2.06772 2L10.4407 8.30223L8.94229 4.57234L2.06772 2ZM18.5114 16.4887L16.2606 19.9228L21.0773 21.2475L22.4535 16.5659L18.5114 16.4887ZM1.17383 16.5659L2.5436 21.2475L7.34744 19.9228L5.1095 16.4887L1.17383 16.5659Z" fill="#E27625" stroke="#E27625" stroke-width="0.160771" stroke-linecap="round" stroke-linejoin="round"/>
<path d="M7.08957 10.6881L5.75195 12.7074L10.5108 12.926L10.3564 7.80064L7.08957 10.6945V10.6881ZM16.53 10.6945L13.2117 7.73633L13.1024 12.926L17.8612 12.7074L16.53 10.6945ZM7.3468 19.9228L10.2343 18.5337L7.75195 16.6045L7.3468 19.9228ZM13.3918 18.5273L16.26 19.9228L15.8741 16.598L13.3918 18.5273Z" fill="#E27625" stroke="#E27625" stroke-width="0.160771" stroke-linecap="round" stroke-linejoin="round"/>
<path d="M16.2608 19.9223L13.3927 18.5332L13.6242 20.3981L13.5984 21.1891L16.2608 19.9223ZM7.34766 19.9223L10.0229 21.1891L10.0036 20.3981L10.2351 18.5332L7.34766 19.9223Z" fill="#D5BFB2" stroke="#D5BFB2" stroke-width="0.160771" stroke-linecap="round" stroke-linejoin="round"/>
<path d="M10.0669 15.3633L7.6875 14.6688L9.37238 13.8971L10.0733 15.3633H10.0669ZM13.546 15.3633L14.2534 13.8906L15.9447 14.6623L13.546 15.3697V15.3633Z" fill="#233447" stroke="#233447" stroke-width="0.160771" stroke-linecap="round" stroke-linejoin="round"/>
<path d="M7.34731 19.9224L7.76531 16.4884L5.10938 16.5655L7.34731 19.9224ZM15.8553 16.4884L16.2605 19.9224L18.5113 16.5655L15.8553 16.4884ZM17.8682 12.707L13.1093 12.9257L13.5466 15.3694L14.254 13.8903L15.9453 14.662L17.8682 12.707ZM7.68814 14.6684L9.37303 13.8967L10.074 15.363L10.5177 12.9192L5.75889 12.707L7.68814 14.6684Z" fill="#CC6228" stroke="#CC6228" stroke-width="0.160771" stroke-linecap="round" stroke-linejoin="round"/>
<path d="M5.75879 12.707L7.75235 16.5977L7.68804 14.6684L5.75879 12.707ZM15.9452 14.6684L15.8681 16.5977L17.8616 12.707L15.9452 14.6684ZM10.5176 12.9257L10.0675 15.3694L10.6334 18.2504L10.762 14.4498L10.5176 12.9257ZM13.1028 12.9257L12.8713 14.4434L12.9871 18.2504L13.5465 15.363L13.1028 12.9192V12.9257Z" fill="#E27525" stroke="#E27525" stroke-width="0.160771" stroke-linecap="round" stroke-linejoin="round"/>
<path d="M13.5466 15.3635L12.9871 18.2509L13.3922 18.5339L15.8681 16.6046L15.9453 14.6689L13.5466 15.3635ZM7.68807 14.6689L7.75238 16.5982L10.2347 18.5275L10.6334 18.2509L10.0739 15.3635L7.68164 14.6689H7.68807Z" fill="#F5841F" stroke="#F5841F" stroke-width="0.160771" stroke-linecap="round" stroke-linejoin="round"/>
<path d="M13.6049 21.1897L13.6242 20.3987L13.4055 20.2187H10.2158L10.0036 20.3987L10.0229 21.1897L7.34766 19.9229L8.28656 20.6946L10.1837 22H13.4312L15.3348 20.6881L16.2608 19.9229L13.5984 21.1897H13.6049Z" fill="#C0AC9D" stroke="#C0AC9D" stroke-width="0.160771" stroke-linecap="round" stroke-linejoin="round"/>
<path d="M13.393 18.5275L12.9878 18.251H10.6341L10.2354 18.5339L10.0039 20.3989L10.2161 20.2188H13.4058L13.6245 20.3989L13.393 18.5339V18.5275Z" fill="#161616" stroke="#161616" stroke-width="0.160771" stroke-linecap="round" stroke-linejoin="round"/>
<path d="M21.9131 8.65592L22.6205 5.21542L21.553 2L13.3858 8.04499L16.5305 10.6881L20.9678 11.9807L21.9453 10.8424L21.5208 10.5337L22.1961 9.91637L21.6816 9.51766L22.3568 9.00319L21.9067 8.65592H21.9131ZM1 5.20899L1.72025 8.65592L1.25723 8.99676L1.94533 9.51123L1.43087 9.91637L2.09967 10.5337L1.67524 10.8424L2.65273 11.9807L7.09001 10.6945L10.2347 8.03856L2.06752 2L1 5.20899Z" fill="#763E1A" stroke="#763E1A" stroke-width="0.160771" stroke-linecap="round" stroke-linejoin="round"/>
<path d="M20.968 11.9812L16.5307 10.695L17.8683 12.7079L15.8747 16.5985L18.5114 16.5664H22.4535L20.968 11.9812ZM7.09021 10.6886L2.65292 11.9812L1.17383 16.5664H5.11594L7.75258 16.5985L5.75902 12.7079L7.09664 10.6886H7.09021ZM13.103 12.9265L13.3924 8.03906L14.6786 4.56641H8.94229L10.2285 8.03906L10.5178 12.9265L10.6272 14.457V18.2512H12.9873L13.0002 14.457L13.103 12.9265Z" fill="#F5841F" stroke="#F5841F" stroke-width="0.160771" stroke-linecap="round" stroke-linejoin="round"/>
</svg>
