<svg width="14" height="14" viewBox="0 0 14 14" fill="none" xmlns="http://www.w3.org/2000/svg">
<path d="M1.12102 7.00217L2.31158 5.34491C2.40365 5.21474 2.51318 5.15125 2.64017 5.15442C2.77034 5.15442 2.88146 5.21792 2.97353 5.34491L4.15933 7.00217C4.27362 7.16091 4.30537 7.30378 4.25457 7.43077C4.20695 7.55459 4.08789 7.6165 3.8974 7.6165H3.1783C3.24815 8.07367 3.3926 8.4991 3.61167 8.89278C3.83391 9.28646 4.11488 9.63251 4.45458 9.93095C4.79747 10.2294 5.18479 10.4611 5.61657 10.6262C6.05152 10.7913 6.51346 10.8739 7.00238 10.8739C7.54845 10.8739 8.05642 10.7691 8.5263 10.5596C8.99935 10.35 9.40731 10.0659 9.75019 9.70712C9.89306 9.5833 10.0359 9.52457 10.1788 9.53092C10.3248 9.53409 10.4487 9.58807 10.5502 9.69284C10.6455 9.79443 10.6915 9.91984 10.6884 10.0691C10.6852 10.2183 10.6169 10.3548 10.4836 10.4786C10.0486 10.9294 9.53113 11.2898 8.93109 11.5596C8.33105 11.8295 7.68814 11.9644 7.00238 11.9644C6.36742 11.9644 5.76896 11.8517 5.20702 11.6263C4.64507 11.4041 4.14028 11.0929 3.69263 10.6929C3.24815 10.2961 2.88463 9.8357 2.60207 9.31186C2.32269 8.78484 2.1449 8.21972 2.0687 7.6165H1.38294C1.18928 7.6165 1.06863 7.553 1.02101 7.42601C0.973387 7.29902 1.00672 7.15774 1.12102 7.00217ZM3.52595 3.52097C3.96407 3.07015 4.48316 2.70981 5.0832 2.43995C5.68324 2.17009 6.32297 2.03516 7.00238 2.03516C7.63735 2.03516 8.2358 2.14786 8.79775 2.37328C9.36286 2.59551 9.86766 2.90665 10.3121 3.30667C10.7598 3.70353 11.1233 4.16546 11.4027 4.69249C11.6852 5.21951 11.8646 5.78463 11.9408 6.38784H12.6171C12.8107 6.38784 12.9314 6.44975 12.979 6.57357C13.0266 6.69739 12.9933 6.84025 12.879 7.00217L11.6884 8.65467C11.5964 8.78484 11.4868 8.84992 11.3598 8.84992C11.2328 8.84992 11.1233 8.78484 11.0312 8.65467L9.84068 6.99741C9.72638 6.83867 9.69305 6.69739 9.74067 6.57357C9.79147 6.44975 9.91211 6.38784 10.1026 6.38784H10.8312C10.7614 5.92749 10.6153 5.50048 10.3931 5.1068C10.1709 4.71312 9.88988 4.36707 9.55018 4.06863C9.21047 3.7702 8.82314 3.53844 8.38819 3.37335C7.95642 3.20508 7.49448 3.12095 7.00238 3.12095C6.46584 3.12095 5.96104 3.2273 5.48799 3.44002C5.01494 3.64955 4.60698 3.93211 4.26409 4.28769C4.12123 4.41469 3.97677 4.47501 3.83073 4.46866C3.68469 4.45914 3.56246 4.40199 3.46404 4.29722C3.36562 4.1988 3.318 4.07657 3.32117 3.93053C3.32435 3.78131 3.3926 3.64479 3.52595 3.52097Z" fill="white" fill-opacity="0.5"/>
</svg>
